<mxfile host="app.diagrams.net" modified="2023-04-06T23:47:35.836Z" agent="Mozilla/5.0 (Windows NT 10.0; Win64; x64) AppleWebKit/537.36 (KHTML, like Gecko) Chrome/112.0.0.0 Safari/537.36" etag="VjnvLkESuf5jLjE2ql5w" version="21.1.1" type="device">
  <diagram name="Page-1" id="VEZ1_ZzL2ih9xUkYUj_j">
    <mxGraphModel dx="1509" dy="804" grid="1" gridSize="10" guides="1" tooltips="1" connect="1" arrows="1" fold="1" page="1" pageScale="1" pageWidth="850" pageHeight="1100" math="0" shadow="0">
      <root>
        <mxCell id="0" />
        <mxCell id="1" parent="0" />
        <mxCell id="2tXNPpNg89e3NOqk92cD-75" value="" style="group" vertex="1" connectable="0" parent="1">
          <mxGeometry x="85" y="20" width="680" height="1050" as="geometry" />
        </mxCell>
        <mxCell id="2tXNPpNg89e3NOqk92cD-1" value="" style="ellipse;html=1;shape=startState;fillColor=#000000;strokeColor=#ff0000;" vertex="1" parent="2tXNPpNg89e3NOqk92cD-75">
          <mxGeometry x="405" width="30" height="30" as="geometry" />
        </mxCell>
        <mxCell id="2tXNPpNg89e3NOqk92cD-2" value="" style="edgeStyle=orthogonalEdgeStyle;html=1;verticalAlign=bottom;endArrow=open;endSize=8;strokeColor=#ff0000;rounded=0;" edge="1" source="2tXNPpNg89e3NOqk92cD-1" parent="2tXNPpNg89e3NOqk92cD-75">
          <mxGeometry relative="1" as="geometry">
            <mxPoint x="420" y="90" as="targetPoint" />
          </mxGeometry>
        </mxCell>
        <mxCell id="2tXNPpNg89e3NOqk92cD-3" value="bestElevator&lt;br&gt;placeholder" style="rounded=1;whiteSpace=wrap;html=1;" vertex="1" parent="2tXNPpNg89e3NOqk92cD-75">
          <mxGeometry x="360" y="90" width="120" height="60" as="geometry" />
        </mxCell>
        <mxCell id="2tXNPpNg89e3NOqk92cD-4" value="First&lt;br&gt;Elevator" style="text;html=1;align=center;verticalAlign=middle;resizable=0;points=[];autosize=1;strokeColor=none;fillColor=none;" vertex="1" parent="2tXNPpNg89e3NOqk92cD-75">
          <mxGeometry x="410" y="40" width="70" height="40" as="geometry" />
        </mxCell>
        <mxCell id="2tXNPpNg89e3NOqk92cD-5" value="if elevator is broken" style="rhombus;whiteSpace=wrap;html=1;" vertex="1" parent="2tXNPpNg89e3NOqk92cD-75">
          <mxGeometry x="310" y="190" width="220" height="90" as="geometry" />
        </mxCell>
        <mxCell id="2tXNPpNg89e3NOqk92cD-6" value="" style="endArrow=classic;html=1;rounded=0;exitX=0.5;exitY=1;exitDx=0;exitDy=0;entryX=0.5;entryY=0;entryDx=0;entryDy=0;" edge="1" parent="2tXNPpNg89e3NOqk92cD-75" source="2tXNPpNg89e3NOqk92cD-3" target="2tXNPpNg89e3NOqk92cD-5">
          <mxGeometry width="50" height="50" relative="1" as="geometry">
            <mxPoint x="390" y="290" as="sourcePoint" />
            <mxPoint x="440" y="240" as="targetPoint" />
          </mxGeometry>
        </mxCell>
        <mxCell id="2tXNPpNg89e3NOqk92cD-7" value="" style="endArrow=none;html=1;rounded=0;entryX=0;entryY=1;entryDx=0;entryDy=0;" edge="1" parent="2tXNPpNg89e3NOqk92cD-75" target="2tXNPpNg89e3NOqk92cD-5">
          <mxGeometry width="50" height="50" relative="1" as="geometry">
            <mxPoint x="250" y="257" as="sourcePoint" />
            <mxPoint x="440" y="240" as="targetPoint" />
          </mxGeometry>
        </mxCell>
        <mxCell id="2tXNPpNg89e3NOqk92cD-8" value="" style="endArrow=none;html=1;rounded=0;" edge="1" parent="2tXNPpNg89e3NOqk92cD-75">
          <mxGeometry width="50" height="50" relative="1" as="geometry">
            <mxPoint x="250" y="260" as="sourcePoint" />
            <mxPoint x="250" y="230" as="targetPoint" />
          </mxGeometry>
        </mxCell>
        <mxCell id="2tXNPpNg89e3NOqk92cD-9" value="" style="endArrow=classic;html=1;rounded=0;entryX=0;entryY=0.5;entryDx=0;entryDy=0;" edge="1" parent="2tXNPpNg89e3NOqk92cD-75" target="2tXNPpNg89e3NOqk92cD-5">
          <mxGeometry width="50" height="50" relative="1" as="geometry">
            <mxPoint x="250" y="235" as="sourcePoint" />
            <mxPoint x="290" y="200" as="targetPoint" />
          </mxGeometry>
        </mxCell>
        <mxCell id="2tXNPpNg89e3NOqk92cD-10" value="True" style="text;html=1;align=center;verticalAlign=middle;resizable=0;points=[];autosize=1;strokeColor=none;fillColor=none;" vertex="1" parent="2tXNPpNg89e3NOqk92cD-75">
          <mxGeometry x="267.5" y="250" width="50" height="30" as="geometry" />
        </mxCell>
        <mxCell id="2tXNPpNg89e3NOqk92cD-11" value="Next&lt;br&gt;Elevator" style="text;html=1;align=center;verticalAlign=middle;resizable=0;points=[];autosize=1;strokeColor=none;fillColor=none;" vertex="1" parent="2tXNPpNg89e3NOqk92cD-75">
          <mxGeometry x="415" y="150" width="70" height="40" as="geometry" />
        </mxCell>
        <mxCell id="2tXNPpNg89e3NOqk92cD-12" value="" style="endArrow=classic;html=1;rounded=0;exitX=0.5;exitY=1;exitDx=0;exitDy=0;entryX=0.5;entryY=0;entryDx=0;entryDy=0;" edge="1" parent="2tXNPpNg89e3NOqk92cD-75" source="2tXNPpNg89e3NOqk92cD-5" target="2tXNPpNg89e3NOqk92cD-13">
          <mxGeometry width="50" height="50" relative="1" as="geometry">
            <mxPoint x="260" y="222" as="sourcePoint" />
            <mxPoint x="405" y="320" as="targetPoint" />
          </mxGeometry>
        </mxCell>
        <mxCell id="2tXNPpNg89e3NOqk92cD-13" value="if &lt;br&gt;requestDirection ==&lt;br&gt;elevatorDirectionUp" style="rhombus;whiteSpace=wrap;html=1;" vertex="1" parent="2tXNPpNg89e3NOqk92cD-75">
          <mxGeometry x="310" y="310" width="220" height="90" as="geometry" />
        </mxCell>
        <mxCell id="2tXNPpNg89e3NOqk92cD-14" value="False" style="text;html=1;align=center;verticalAlign=middle;resizable=0;points=[];autosize=1;strokeColor=none;fillColor=none;" vertex="1" parent="2tXNPpNg89e3NOqk92cD-75">
          <mxGeometry x="420" y="280" width="50" height="30" as="geometry" />
        </mxCell>
        <mxCell id="2tXNPpNg89e3NOqk92cD-15" value="if&lt;br&gt;elevatorFloor - requestFloor&lt;br&gt;&amp;lt;= 0" style="rhombus;whiteSpace=wrap;html=1;" vertex="1" parent="2tXNPpNg89e3NOqk92cD-75">
          <mxGeometry x="310" y="430" width="220" height="90" as="geometry" />
        </mxCell>
        <mxCell id="2tXNPpNg89e3NOqk92cD-18" value="" style="endArrow=classic;html=1;rounded=0;exitX=0.5;exitY=1;exitDx=0;exitDy=0;entryX=0.5;entryY=0;entryDx=0;entryDy=0;" edge="1" parent="2tXNPpNg89e3NOqk92cD-75" source="2tXNPpNg89e3NOqk92cD-13" target="2tXNPpNg89e3NOqk92cD-15">
          <mxGeometry width="50" height="50" relative="1" as="geometry">
            <mxPoint x="390" y="360" as="sourcePoint" />
            <mxPoint x="440" y="310" as="targetPoint" />
          </mxGeometry>
        </mxCell>
        <mxCell id="2tXNPpNg89e3NOqk92cD-20" value="True" style="text;html=1;align=center;verticalAlign=middle;resizable=0;points=[];autosize=1;strokeColor=none;fillColor=none;" vertex="1" parent="2tXNPpNg89e3NOqk92cD-75">
          <mxGeometry x="415" y="400" width="50" height="30" as="geometry" />
        </mxCell>
        <mxCell id="2tXNPpNg89e3NOqk92cD-21" value="if&lt;br&gt;bestElevatorFloor - requestFloor&lt;br&gt;&amp;lt;= 0&lt;br&gt;and&lt;br&gt;requestDirection ==&lt;br&gt;bestElevatorDirection" style="rhombus;whiteSpace=wrap;html=1;" vertex="1" parent="2tXNPpNg89e3NOqk92cD-75">
          <mxGeometry x="302.5" y="570" width="235" height="190" as="geometry" />
        </mxCell>
        <mxCell id="2tXNPpNg89e3NOqk92cD-22" value="" style="endArrow=classic;html=1;rounded=0;exitX=0.5;exitY=1;exitDx=0;exitDy=0;entryX=0.5;entryY=0;entryDx=0;entryDy=0;" edge="1" parent="2tXNPpNg89e3NOqk92cD-75" source="2tXNPpNg89e3NOqk92cD-15" target="2tXNPpNg89e3NOqk92cD-21">
          <mxGeometry width="50" height="50" relative="1" as="geometry">
            <mxPoint x="390" y="510" as="sourcePoint" />
            <mxPoint x="440" y="460" as="targetPoint" />
          </mxGeometry>
        </mxCell>
        <mxCell id="2tXNPpNg89e3NOqk92cD-23" value="True" style="text;html=1;align=center;verticalAlign=middle;resizable=0;points=[];autosize=1;strokeColor=none;fillColor=none;" vertex="1" parent="2tXNPpNg89e3NOqk92cD-75">
          <mxGeometry x="415" y="530" width="50" height="30" as="geometry" />
        </mxCell>
        <mxCell id="2tXNPpNg89e3NOqk92cD-24" value="if&lt;br&gt;Math.abs(elevatorFloor - requestFloor)&lt;br&gt;&amp;lt;&lt;br&gt;Math.abs(bestElevatorFloor - requestFloor)" style="rhombus;whiteSpace=wrap;html=1;" vertex="1" parent="2tXNPpNg89e3NOqk92cD-75">
          <mxGeometry x="297.5" y="830" width="245" height="180" as="geometry" />
        </mxCell>
        <mxCell id="2tXNPpNg89e3NOqk92cD-25" value="" style="endArrow=classic;html=1;rounded=0;exitX=0.5;exitY=1;exitDx=0;exitDy=0;entryX=0.5;entryY=0;entryDx=0;entryDy=0;" edge="1" parent="2tXNPpNg89e3NOqk92cD-75" source="2tXNPpNg89e3NOqk92cD-21" target="2tXNPpNg89e3NOqk92cD-24">
          <mxGeometry width="50" height="50" relative="1" as="geometry">
            <mxPoint x="390" y="730" as="sourcePoint" />
            <mxPoint x="440" y="680" as="targetPoint" />
          </mxGeometry>
        </mxCell>
        <mxCell id="2tXNPpNg89e3NOqk92cD-26" value="True" style="text;html=1;align=center;verticalAlign=middle;resizable=0;points=[];autosize=1;strokeColor=none;fillColor=none;" vertex="1" parent="2tXNPpNg89e3NOqk92cD-75">
          <mxGeometry x="420" y="780" width="50" height="30" as="geometry" />
        </mxCell>
        <mxCell id="2tXNPpNg89e3NOqk92cD-29" value="" style="endArrow=none;html=1;rounded=0;entryX=0.5;entryY=1;entryDx=0;entryDy=0;" edge="1" parent="2tXNPpNg89e3NOqk92cD-75" target="2tXNPpNg89e3NOqk92cD-24">
          <mxGeometry width="50" height="50" relative="1" as="geometry">
            <mxPoint x="420" y="1050" as="sourcePoint" />
            <mxPoint x="440" y="1050" as="targetPoint" />
          </mxGeometry>
        </mxCell>
        <mxCell id="2tXNPpNg89e3NOqk92cD-30" value="" style="endArrow=none;html=1;rounded=0;" edge="1" parent="2tXNPpNg89e3NOqk92cD-75">
          <mxGeometry width="50" height="50" relative="1" as="geometry">
            <mxPoint x="680" y="1050" as="sourcePoint" />
            <mxPoint x="400" y="1050" as="targetPoint" />
          </mxGeometry>
        </mxCell>
        <mxCell id="2tXNPpNg89e3NOqk92cD-31" value="" style="endArrow=none;html=1;rounded=0;" edge="1" parent="2tXNPpNg89e3NOqk92cD-75">
          <mxGeometry width="50" height="50" relative="1" as="geometry">
            <mxPoint x="680" y="1050" as="sourcePoint" />
            <mxPoint x="680" y="120" as="targetPoint" />
          </mxGeometry>
        </mxCell>
        <mxCell id="2tXNPpNg89e3NOqk92cD-32" value="" style="endArrow=classic;html=1;rounded=0;entryX=1;entryY=0.5;entryDx=0;entryDy=0;" edge="1" parent="2tXNPpNg89e3NOqk92cD-75" target="2tXNPpNg89e3NOqk92cD-3">
          <mxGeometry width="50" height="50" relative="1" as="geometry">
            <mxPoint x="680" y="120" as="sourcePoint" />
            <mxPoint x="440" y="220" as="targetPoint" />
          </mxGeometry>
        </mxCell>
        <mxCell id="2tXNPpNg89e3NOqk92cD-33" value="elevator" style="text;html=1;align=center;verticalAlign=middle;resizable=0;points=[];autosize=1;strokeColor=none;fillColor=none;" vertex="1" parent="2tXNPpNg89e3NOqk92cD-75">
          <mxGeometry x="523" y="90" width="70" height="30" as="geometry" />
        </mxCell>
        <mxCell id="2tXNPpNg89e3NOqk92cD-34" value="" style="endArrow=none;html=1;rounded=0;exitX=1;exitY=0.5;exitDx=0;exitDy=0;" edge="1" parent="2tXNPpNg89e3NOqk92cD-75" source="2tXNPpNg89e3NOqk92cD-21">
          <mxGeometry width="50" height="50" relative="1" as="geometry">
            <mxPoint x="528" y="620" as="sourcePoint" />
            <mxPoint x="680" y="665" as="targetPoint" />
          </mxGeometry>
        </mxCell>
        <mxCell id="2tXNPpNg89e3NOqk92cD-35" value="" style="endArrow=classic;html=1;rounded=0;exitX=0;exitY=0.5;exitDx=0;exitDy=0;entryX=1;entryY=0.5;entryDx=0;entryDy=0;" edge="1" parent="2tXNPpNg89e3NOqk92cD-75" source="2tXNPpNg89e3NOqk92cD-13" target="2tXNPpNg89e3NOqk92cD-37">
          <mxGeometry width="50" height="50" relative="1" as="geometry">
            <mxPoint x="260" y="410" as="sourcePoint" />
            <mxPoint x="230" y="355" as="targetPoint" />
          </mxGeometry>
        </mxCell>
        <mxCell id="2tXNPpNg89e3NOqk92cD-36" value="False" style="text;html=1;align=center;verticalAlign=middle;resizable=0;points=[];autosize=1;strokeColor=none;fillColor=none;" vertex="1" parent="2tXNPpNg89e3NOqk92cD-75">
          <mxGeometry x="252.5" y="330" width="50" height="30" as="geometry" />
        </mxCell>
        <mxCell id="2tXNPpNg89e3NOqk92cD-37" value="if &lt;br&gt;!requestDirection ==&lt;br&gt;!elevatorDirectionUp" style="rhombus;whiteSpace=wrap;html=1;" vertex="1" parent="2tXNPpNg89e3NOqk92cD-75">
          <mxGeometry x="27.5" y="310" width="220" height="90" as="geometry" />
        </mxCell>
        <mxCell id="2tXNPpNg89e3NOqk92cD-38" value="" style="endArrow=none;html=1;rounded=0;exitX=1;exitY=0.5;exitDx=0;exitDy=0;" edge="1" parent="2tXNPpNg89e3NOqk92cD-75" source="2tXNPpNg89e3NOqk92cD-15">
          <mxGeometry width="50" height="50" relative="1" as="geometry">
            <mxPoint x="533" y="675" as="sourcePoint" />
            <mxPoint x="610" y="475" as="targetPoint" />
          </mxGeometry>
        </mxCell>
        <mxCell id="2tXNPpNg89e3NOqk92cD-39" value="" style="endArrow=none;html=1;rounded=0;" edge="1" parent="2tXNPpNg89e3NOqk92cD-75">
          <mxGeometry width="50" height="50" relative="1" as="geometry">
            <mxPoint x="610" y="480" as="sourcePoint" />
            <mxPoint x="610" y="230" as="targetPoint" />
          </mxGeometry>
        </mxCell>
        <mxCell id="2tXNPpNg89e3NOqk92cD-40" value="" style="endArrow=classic;html=1;rounded=0;entryX=1;entryY=0.5;entryDx=0;entryDy=0;" edge="1" parent="2tXNPpNg89e3NOqk92cD-75" target="2tXNPpNg89e3NOqk92cD-5">
          <mxGeometry width="50" height="50" relative="1" as="geometry">
            <mxPoint x="610" y="235" as="sourcePoint" />
            <mxPoint x="440" y="470" as="targetPoint" />
          </mxGeometry>
        </mxCell>
        <mxCell id="2tXNPpNg89e3NOqk92cD-41" value="False" style="text;html=1;align=center;verticalAlign=middle;resizable=0;points=[];autosize=1;strokeColor=none;fillColor=none;" vertex="1" parent="2tXNPpNg89e3NOqk92cD-75">
          <mxGeometry x="533" y="450" width="50" height="30" as="geometry" />
        </mxCell>
        <mxCell id="2tXNPpNg89e3NOqk92cD-42" value="if&lt;br&gt;elevatorFloor - requestFloor&lt;br&gt;&amp;gt;= 0" style="rhombus;whiteSpace=wrap;html=1;" vertex="1" parent="2tXNPpNg89e3NOqk92cD-75">
          <mxGeometry x="27.5" y="430" width="220" height="90" as="geometry" />
        </mxCell>
        <mxCell id="2tXNPpNg89e3NOqk92cD-43" value="" style="endArrow=classic;html=1;rounded=0;exitX=0.5;exitY=1;exitDx=0;exitDy=0;entryX=0.5;entryY=0;entryDx=0;entryDy=0;" edge="1" parent="2tXNPpNg89e3NOqk92cD-75" source="2tXNPpNg89e3NOqk92cD-37" target="2tXNPpNg89e3NOqk92cD-42">
          <mxGeometry width="50" height="50" relative="1" as="geometry">
            <mxPoint x="390" y="600" as="sourcePoint" />
            <mxPoint x="440" y="550" as="targetPoint" />
          </mxGeometry>
        </mxCell>
        <mxCell id="2tXNPpNg89e3NOqk92cD-44" value="if&lt;br&gt;bestElevatorFloor - requestFloor&lt;br&gt;&amp;gt;= 0&lt;br&gt;and&lt;br&gt;requestDirection ==&lt;br&gt;bestElevatorDirection" style="rhombus;whiteSpace=wrap;html=1;" vertex="1" parent="2tXNPpNg89e3NOqk92cD-75">
          <mxGeometry x="20" y="570" width="235" height="190" as="geometry" />
        </mxCell>
        <mxCell id="2tXNPpNg89e3NOqk92cD-45" value="" style="endArrow=classic;html=1;rounded=0;exitX=0.5;exitY=1;exitDx=0;exitDy=0;entryX=0.5;entryY=0;entryDx=0;entryDy=0;" edge="1" parent="2tXNPpNg89e3NOqk92cD-75" source="2tXNPpNg89e3NOqk92cD-42" target="2tXNPpNg89e3NOqk92cD-44">
          <mxGeometry width="50" height="50" relative="1" as="geometry">
            <mxPoint x="160" y="410" as="sourcePoint" />
            <mxPoint x="160" y="440" as="targetPoint" />
          </mxGeometry>
        </mxCell>
        <mxCell id="2tXNPpNg89e3NOqk92cD-46" value="True" style="text;html=1;align=center;verticalAlign=middle;resizable=0;points=[];autosize=1;strokeColor=none;fillColor=none;" vertex="1" parent="2tXNPpNg89e3NOqk92cD-75">
          <mxGeometry x="130" y="400" width="50" height="30" as="geometry" />
        </mxCell>
        <mxCell id="2tXNPpNg89e3NOqk92cD-47" value="True" style="text;html=1;align=center;verticalAlign=middle;resizable=0;points=[];autosize=1;strokeColor=none;fillColor=none;" vertex="1" parent="2tXNPpNg89e3NOqk92cD-75">
          <mxGeometry x="130" y="530" width="50" height="30" as="geometry" />
        </mxCell>
        <mxCell id="2tXNPpNg89e3NOqk92cD-48" value="if&lt;br&gt;Math.abs(elevatorFloor - requestFloor)&lt;br&gt;&amp;lt;&lt;br&gt;Math.abs(bestElevatorFloor - requestFloor)" style="rhombus;whiteSpace=wrap;html=1;" vertex="1" parent="2tXNPpNg89e3NOqk92cD-75">
          <mxGeometry x="15" y="830" width="245" height="180" as="geometry" />
        </mxCell>
        <mxCell id="2tXNPpNg89e3NOqk92cD-49" value="" style="endArrow=classic;html=1;rounded=0;exitX=0.5;exitY=1;exitDx=0;exitDy=0;entryX=0.5;entryY=0;entryDx=0;entryDy=0;" edge="1" parent="2tXNPpNg89e3NOqk92cD-75" source="2tXNPpNg89e3NOqk92cD-44" target="2tXNPpNg89e3NOqk92cD-48">
          <mxGeometry width="50" height="50" relative="1" as="geometry">
            <mxPoint x="416" y="770" as="sourcePoint" />
            <mxPoint x="416" y="840" as="targetPoint" />
          </mxGeometry>
        </mxCell>
        <mxCell id="2tXNPpNg89e3NOqk92cD-50" value="True" style="text;html=1;align=center;verticalAlign=middle;resizable=0;points=[];autosize=1;strokeColor=none;fillColor=none;" vertex="1" parent="2tXNPpNg89e3NOqk92cD-75">
          <mxGeometry x="130" y="780" width="50" height="30" as="geometry" />
        </mxCell>
        <mxCell id="2tXNPpNg89e3NOqk92cD-51" value="" style="endArrow=none;html=1;rounded=0;entryX=0.5;entryY=1;entryDx=0;entryDy=0;" edge="1" parent="2tXNPpNg89e3NOqk92cD-75" target="2tXNPpNg89e3NOqk92cD-48">
          <mxGeometry width="50" height="50" relative="1" as="geometry">
            <mxPoint x="138" y="1050" as="sourcePoint" />
            <mxPoint x="410" y="1060" as="targetPoint" />
          </mxGeometry>
        </mxCell>
        <mxCell id="2tXNPpNg89e3NOqk92cD-52" value="" style="endArrow=none;html=1;rounded=0;" edge="1" parent="2tXNPpNg89e3NOqk92cD-75">
          <mxGeometry width="50" height="50" relative="1" as="geometry">
            <mxPoint x="400" y="1050" as="sourcePoint" />
            <mxPoint x="150" y="1050" as="targetPoint" />
          </mxGeometry>
        </mxCell>
        <mxCell id="2tXNPpNg89e3NOqk92cD-53" value="" style="endArrow=none;html=1;rounded=0;entryX=0;entryY=0.5;entryDx=0;entryDy=0;" edge="1" parent="2tXNPpNg89e3NOqk92cD-75" target="2tXNPpNg89e3NOqk92cD-44">
          <mxGeometry width="50" height="50" relative="1" as="geometry">
            <mxPoint y="665" as="sourcePoint" />
            <mxPoint x="430" y="1080" as="targetPoint" />
          </mxGeometry>
        </mxCell>
        <mxCell id="2tXNPpNg89e3NOqk92cD-54" value="" style="endArrow=none;html=1;rounded=0;" edge="1" parent="2tXNPpNg89e3NOqk92cD-75">
          <mxGeometry width="50" height="50" relative="1" as="geometry">
            <mxPoint y="660" as="sourcePoint" />
            <mxPoint y="1050" as="targetPoint" />
          </mxGeometry>
        </mxCell>
        <mxCell id="2tXNPpNg89e3NOqk92cD-55" value="" style="endArrow=none;html=1;rounded=0;" edge="1" parent="2tXNPpNg89e3NOqk92cD-75">
          <mxGeometry width="50" height="50" relative="1" as="geometry">
            <mxPoint y="1050" as="sourcePoint" />
            <mxPoint x="150" y="1050" as="targetPoint" />
          </mxGeometry>
        </mxCell>
        <mxCell id="2tXNPpNg89e3NOqk92cD-56" value="False" style="text;html=1;align=center;verticalAlign=middle;resizable=0;points=[];autosize=1;strokeColor=none;fillColor=none;" vertex="1" parent="2tXNPpNg89e3NOqk92cD-75">
          <mxGeometry x="550" y="640" width="50" height="30" as="geometry" />
        </mxCell>
        <mxCell id="2tXNPpNg89e3NOqk92cD-57" value="False" style="text;html=1;align=center;verticalAlign=middle;resizable=0;points=[];autosize=1;strokeColor=none;fillColor=none;" vertex="1" parent="2tXNPpNg89e3NOqk92cD-75">
          <mxGeometry y="730" width="50" height="30" as="geometry" />
        </mxCell>
        <mxCell id="2tXNPpNg89e3NOqk92cD-58" value="True" style="text;html=1;align=center;verticalAlign=middle;resizable=0;points=[];autosize=1;strokeColor=none;fillColor=none;" vertex="1" parent="2tXNPpNg89e3NOqk92cD-75">
          <mxGeometry x="130" y="1020" width="50" height="30" as="geometry" />
        </mxCell>
        <mxCell id="2tXNPpNg89e3NOqk92cD-59" value="True" style="text;html=1;align=center;verticalAlign=middle;resizable=0;points=[];autosize=1;strokeColor=none;fillColor=none;" vertex="1" parent="2tXNPpNg89e3NOqk92cD-75">
          <mxGeometry x="420" y="1020" width="50" height="30" as="geometry" />
        </mxCell>
        <mxCell id="2tXNPpNg89e3NOqk92cD-60" value="" style="endArrow=none;html=1;rounded=0;exitX=0;exitY=0.5;exitDx=0;exitDy=0;" edge="1" parent="2tXNPpNg89e3NOqk92cD-75" source="2tXNPpNg89e3NOqk92cD-42">
          <mxGeometry width="50" height="50" relative="1" as="geometry">
            <mxPoint x="525" y="485" as="sourcePoint" />
            <mxPoint y="475" as="targetPoint" />
          </mxGeometry>
        </mxCell>
        <mxCell id="2tXNPpNg89e3NOqk92cD-61" value="" style="endArrow=none;html=1;rounded=0;" edge="1" parent="2tXNPpNg89e3NOqk92cD-75">
          <mxGeometry width="50" height="50" relative="1" as="geometry">
            <mxPoint y="210" as="sourcePoint" />
            <mxPoint y="480" as="targetPoint" />
          </mxGeometry>
        </mxCell>
        <mxCell id="2tXNPpNg89e3NOqk92cD-62" value="" style="endArrow=classic;html=1;rounded=0;entryX=0;entryY=0;entryDx=0;entryDy=0;" edge="1" parent="2tXNPpNg89e3NOqk92cD-75" target="2tXNPpNg89e3NOqk92cD-5">
          <mxGeometry width="50" height="50" relative="1" as="geometry">
            <mxPoint y="212" as="sourcePoint" />
            <mxPoint x="305" y="245" as="targetPoint" />
          </mxGeometry>
        </mxCell>
        <mxCell id="2tXNPpNg89e3NOqk92cD-63" value="False" style="text;html=1;align=center;verticalAlign=middle;resizable=0;points=[];autosize=1;strokeColor=none;fillColor=none;" vertex="1" parent="2tXNPpNg89e3NOqk92cD-75">
          <mxGeometry y="430" width="50" height="30" as="geometry" />
        </mxCell>
        <mxCell id="2tXNPpNg89e3NOqk92cD-66" value="" style="endArrow=none;html=1;rounded=0;exitX=1;exitY=1;exitDx=0;exitDy=0;" edge="1" parent="2tXNPpNg89e3NOqk92cD-75" source="2tXNPpNg89e3NOqk92cD-37">
          <mxGeometry width="50" height="50" relative="1" as="geometry">
            <mxPoint x="10" y="220" as="sourcePoint" />
            <mxPoint x="280" y="440" as="targetPoint" />
          </mxGeometry>
        </mxCell>
        <mxCell id="2tXNPpNg89e3NOqk92cD-67" value="" style="endArrow=none;html=1;rounded=0;" edge="1" parent="2tXNPpNg89e3NOqk92cD-75">
          <mxGeometry width="50" height="50" relative="1" as="geometry">
            <mxPoint x="280" y="790" as="sourcePoint" />
            <mxPoint x="280" y="440" as="targetPoint" />
          </mxGeometry>
        </mxCell>
        <mxCell id="2tXNPpNg89e3NOqk92cD-68" value="" style="endArrow=classic;html=1;rounded=0;entryX=0;entryY=0;entryDx=0;entryDy=0;" edge="1" parent="2tXNPpNg89e3NOqk92cD-75" target="2tXNPpNg89e3NOqk92cD-24">
          <mxGeometry width="50" height="50" relative="1" as="geometry">
            <mxPoint x="280" y="790" as="sourcePoint" />
            <mxPoint x="380" y="760" as="targetPoint" />
          </mxGeometry>
        </mxCell>
        <mxCell id="2tXNPpNg89e3NOqk92cD-70" value="False" style="text;html=1;align=center;verticalAlign=middle;resizable=0;points=[];autosize=1;strokeColor=none;fillColor=none;" vertex="1" parent="2tXNPpNg89e3NOqk92cD-75">
          <mxGeometry x="220" y="380" width="50" height="30" as="geometry" />
        </mxCell>
        <mxCell id="2tXNPpNg89e3NOqk92cD-71" value="" style="ellipse;html=1;shape=endState;fillColor=#000000;strokeColor=#ff0000;" vertex="1" parent="2tXNPpNg89e3NOqk92cD-75">
          <mxGeometry x="190" y="105" width="30" height="30" as="geometry" />
        </mxCell>
        <mxCell id="2tXNPpNg89e3NOqk92cD-72" value="" style="endArrow=classic;html=1;rounded=0;entryX=1;entryY=0.5;entryDx=0;entryDy=0;exitX=0;exitY=0.5;exitDx=0;exitDy=0;" edge="1" parent="2tXNPpNg89e3NOqk92cD-75" source="2tXNPpNg89e3NOqk92cD-3" target="2tXNPpNg89e3NOqk92cD-71">
          <mxGeometry width="50" height="50" relative="1" as="geometry">
            <mxPoint x="390" y="240" as="sourcePoint" />
            <mxPoint x="440" y="190" as="targetPoint" />
          </mxGeometry>
        </mxCell>
        <mxCell id="2tXNPpNg89e3NOqk92cD-73" value="bestElevator" style="text;html=1;align=center;verticalAlign=middle;resizable=0;points=[];autosize=1;strokeColor=none;fillColor=none;" vertex="1" parent="2tXNPpNg89e3NOqk92cD-75">
          <mxGeometry x="247.5" y="90" width="90" height="30" as="geometry" />
        </mxCell>
        <mxCell id="2tXNPpNg89e3NOqk92cD-76" value="&lt;b&gt;&lt;font style=&quot;font-size: 30px;&quot;&gt;Scheduler State Machine&lt;/font&gt;&lt;/b&gt;" style="text;html=1;align=center;verticalAlign=middle;resizable=0;points=[];autosize=1;strokeColor=none;fillColor=none;" vertex="1" parent="2tXNPpNg89e3NOqk92cD-75">
          <mxGeometry x="-52.5" y="20" width="380" height="50" as="geometry" />
        </mxCell>
      </root>
    </mxGraphModel>
  </diagram>
</mxfile>
